<?xml version="1.0" standalone="no"?>
<!DOCTYPE svg PUBLIC "-//W3C//DTD SVG 20010904//EN"
 "http://www.w3.org/TR/2001/REC-SVG-20010904/DTD/svg10.dtd">
<svg version="1.0" xmlns="http://www.w3.org/2000/svg"
 width="1024.000000pt" height="1024.000000pt" viewBox="0 0 1024.000000 1024.000000"
 preserveAspectRatio="xMidYMid meet">
<metadata>
Created by potrace 1.11, written by Peter Selinger 2001-2013
</metadata>
<g transform="translate(0.000000,1024.000000) scale(0.100000,-0.100000)"
fill="#000000" stroke="none">
<path d="M1240 7722 c-12 -4 -14 -5202 -2 -5203 4 0 233 -1 510 -2 l502 -2 1
185 c0 102 0 620 0 1151 l0 966 1120 0 1119 0 0 -31 c0 -17 1 -545 1 -1173 l1
-1143 27 -1 c213 -4 3099 1 3131 6 210 31 419 116 620 251 127 85 157 111 276
229 153 154 290 359 362 545 27 69 69 215 77 267 3 21 8 50 11 63 3 14 8 97 9
185 8 339 -73 604 -266 878 -122 173 -362 392 -525 481 -16 8 -35 19 -42 24
-10 7 11 34 80 103 169 170 288 386 333 604 20 93 24 140 23 275 0 138 -15
293 -32 348 -4 11 -9 30 -11 41 -3 12 -7 29 -9 39 -2 9 -16 48 -30 85 -144
383 -486 656 -946 757 -81 18 -158 19 -1587 20 l-1502 0 1 -275 1 -275 1426 0
c784 0 1451 -3 1481 -6 75 -8 236 -63 306 -105 148 -87 260 -250 291 -422 13
-75 7 -267 -10 -337 -59 -228 -228 -389 -484 -462 l-78 -21 -2586 -2 -2587 -2
2 979 c1 863 -1 978 -14 979 -49 3 -992 3 -1000 1z m6355 -2919 c345 -58 594
-263 675 -555 28 -99 34 -155 34 -278 0 -265 -68 -446 -224 -600 -85 -84 -148
-125 -271 -174 -181 -74 -99 -70 -1431 -73 l-1198 -4 0 849 0 850 1168 -1
c934 0 1183 -3 1247 -14z"/>
</g>
</svg>
