<?xml version="1.0" standalone="no"?>
<!DOCTYPE svg PUBLIC "-//W3C//DTD SVG 20010904//EN"
 "http://www.w3.org/TR/2001/REC-SVG-20010904/DTD/svg10.dtd">
<svg version="1.0" xmlns="http://www.w3.org/2000/svg"
 width="512.000000pt" height="512.000000pt" viewBox="0 0 512.000000 512.000000"
 preserveAspectRatio="xMidYMid meet">
<metadata>
Created by potrace 1.11, written by Peter Selinger 2001-2013
</metadata>
<g transform="translate(0.000000,512.000000) scale(0.100000,-0.100000)"
fill="#000000" stroke="none">
<path d="M2548 4116 c-18 -18 -114 -138 -213 -267 -99 -129 -185 -241 -192
-249 -6 -8 -78 -100 -159 -205 -175 -227 -182 -236 -307 -395 -7 -9 -39 -51
-72 -95 -33 -44 -67 -89 -77 -100 -9 -11 -35 -44 -58 -73 l-41 -52 -33 42
c-67 89 -171 224 -183 238 -7 8 -80 103 -163 210 -83 107 -176 228 -208 269
-31 40 -63 80 -70 90 -39 51 -215 278 -225 291 -7 8 -58 74 -114 145 -56 72
-113 140 -126 153 -33 30 -87 29 -123 -1 l-27 -23 0 -1617 0 -1617 27 -25 c19
-17 38 -25 64 -25 39 0 47 6 92 70 13 19 28 40 32 45 5 6 38 48 74 95 37 47
77 99 90 115 13 17 110 143 216 280 107 138 216 279 244 315 79 102 334 432
358 463 11 16 26 34 31 40 6 7 18 22 27 35 l16 23 35 -43 c19 -24 231 -297
471 -608 240 -311 442 -572 449 -580 57 -71 137 -179 137 -186 0 -5 11 -22 25
-37 l26 -27 762 3 c419 2 771 6 783 10 11 3 45 8 75 11 44 5 133 24 239 50 72
18 222 89 304 144 99 67 204 174 247 252 8 15 22 39 30 52 22 33 66 163 80
233 17 86 19 262 4 342 -48 251 -211 458 -445 567 l-72 33 32 13 c113 47 242
167 313 291 148 259 132 653 -38 919 -134 210 -400 358 -710 395 -33 4 -69 10
-80 13 -11 2 -356 6 -767 8 l-747 3 -33 -33z m1839 -928 c-3 -8 -6 -5 -6 6 -1
11 2 17 5 13 3 -3 4 -12 1 -19z"/>
</g>
</svg>
