<?xml version="1.0" encoding="utf-8"?>
<!-- Generator: Adobe Illustrator 17.0.0, SVG Export Plug-In . SVG Version: 6.00 Build 0)  -->
<!DOCTYPE svg PUBLIC "-//W3C//DTD SVG 1.1//EN" "http://www.w3.org/Graphics/SVG/1.1/DTD/svg11.dtd">
<svg version="1.1" xmlns="http://www.w3.org/2000/svg" xmlns:xlink="http://www.w3.org/1999/xlink" x="0px" y="0px" width="1024px"
	 height="1024px" viewBox="0 0 1024 1024" enable-background="new 0 0 1024 1024" xml:space="preserve">
<g id="Layer_1" display="none">
	<rect display="inline" fill-rule="evenodd" clip-rule="evenodd" width="1024" height="1024"/>
	<linearGradient id="SVGID_1_" gradientUnits="userSpaceOnUse" x1="104.692" y1="713.8764" x2="839.1495" y2="289.8372">
		<stop  offset="0" style="stop-color:#FFFFFF"/>
		<stop  offset="1" style="stop-color:#737373"/>
	</linearGradient>
	<path fill-rule="evenodd" clip-rule="evenodd" fill="url(#SVGID_1_)" d="M138.252,772.004v-520l175.487,228.8l176.168-228.8H704.14
		c0,0,162.4-3.2,167.2,121.6s-89.6,132-89.6,132s103.2,20,104,116s-56.8,156.021-244.8,148.811c-188-7.211-151.042,0-151.042,0
		L313.739,543.204L138.252,772.004z"/>
</g>
<g id="Layer_2">
	<linearGradient id="SVGID_2_" gradientUnits="userSpaceOnUse" x1="766.5558" y1="810.2379" x2="173.2868" y2="216.9688">
		<stop  offset="0" style="stop-color:#FFFFFF"/>
		<stop  offset="1" style="stop-color:#737373"/>
	</linearGradient>
	<path display="none" fill-rule="evenodd" clip-rule="evenodd" fill="url(#SVGID_2_)" d="M489.898,770.415H691
		c0,0,194.496,14.585,194.748-130.415S781.74,505.604,781.74,505.604s89.27-16.679,89.765-120.641s-76.198-132.281-155.352-132.62
		c-79.153-0.339-226.246-0.339-226.246-0.339l-176.168,228.8l-175.487-228.8v520l175.487-228.8L489.898,770.415z"/>
</g>
<g id="Layer_3" display="none">
	<linearGradient id="SVGID_3_" gradientUnits="userSpaceOnUse" x1="410.6136" y1="281.6837" x2="520.1081" y2="652.1652">
		<stop  offset="0" style="stop-color:#FFFFFF"/>
		<stop  offset="1" style="stop-color:#808080"/>
	</linearGradient>
	<path fill="url(#SVGID_3_)" d="M126.729,252.081v520l175.487-228.8l460.594,0.463c0,0,85.333-1.333,86,98
		c0.667,99.333-158.667,102-158.667,102l-200.667-1.667l-65-93l-40.202,0.044l91.39,120.467l252.89,2.493
		c0,0,168.254-13.671,172.254-155.004S770.143,501.744,770.143,501.744s90.828-7.425,89.414-130.713
		S743.479,251.215,584.144,252.146s-105.76-0.065-105.76-0.065l-27.328,35.493l223.754-0.496c0,0,152.667-15.333,152,82
		c-0.667,97.333-84.667,106-84.667,106l-439.927,5.804L126.729,252.081z"/>
	<polygon fill="#FFFFFF" points="126.729,252.081 126.729,772.081 302.216,543.281 754.48,543.736 754.48,477.077 302.216,480.881 	
		"/>
	<linearGradient id="SVGID_4_" gradientUnits="userSpaceOnUse" x1="234.8808" y1="-36.3346" x2="1083.8384" y2="673.1299">
		<stop  offset="0" style="stop-color:#FFFFFF"/>
		<stop  offset="1" style="stop-color:#666666"/>
	</linearGradient>
	<circle display="inline" fill="url(#SVGID_4_)" cx="732.977" cy="379.919" r="128"/>
	<linearGradient id="SVGID_5_" gradientUnits="userSpaceOnUse" x1="123.4975" y1="96.9486" x2="972.455" y2="806.4131">
		<stop  offset="0" style="stop-color:#FFFFFF"/>
		<stop  offset="1" style="stop-color:#666666"/>
	</linearGradient>
	<circle display="inline" fill="url(#SVGID_5_)" cx="745.897" cy="617.081" r="155"/>
	<linearGradient id="SVGID_6_" gradientUnits="userSpaceOnUse" x1="227.3915" y1="-27.3727" x2="1076.349" y2="682.0918">
		<stop  offset="0" style="stop-color:#FFFFFF"/>
		<stop  offset="1" style="stop-color:#666666"/>
	</linearGradient>
	<rect x="449.477" y="252.081" display="inline" fill="url(#SVGID_6_)" width="296.421" height="59.996"/>
	<linearGradient id="SVGID_7_" gradientUnits="userSpaceOnUse" x1="4.5749" y1="239.2535" x2="853.5325" y2="948.718">
		<stop  offset="0" style="stop-color:#FFFFFF"/>
		<stop  offset="1" style="stop-color:#666666"/>
	</linearGradient>
	<rect x="458.059" y="712.085" display="inline" fill="url(#SVGID_7_)" width="296.421" height="59.996"/>
	<linearGradient id="SVGID_8_" gradientUnits="userSpaceOnUse" x1="56.267" y1="177.3978" x2="905.2246" y2="886.8623">
		<stop  offset="0" style="stop-color:#FFFFFF"/>
		<stop  offset="1" style="stop-color:#666666"/>
	</linearGradient>
	<rect x="126.729" y="447.919" display="inline" fill="url(#SVGID_8_)" width="619.169" height="94.159"/>
	<linearGradient id="SVGID_9_" gradientUnits="userSpaceOnUse" x1="-60.3315" y1="316.9216" x2="788.626" y2="1026.3861">
		<stop  offset="0" style="stop-color:#FFFFFF"/>
		<stop  offset="1" style="stop-color:#666666"/>
	</linearGradient>
	<rect x="123.103" y="251.919" display="inline" fill="url(#SVGID_9_)" width="100" height="520.163"/>
	<linearGradient id="SVGID_10_" gradientUnits="userSpaceOnUse" x1="28.4638" y1="210.6676" x2="877.4213" y2="920.1321">
		<stop  offset="0" style="stop-color:#FFFFFF"/>
		<stop  offset="1" style="stop-color:#666666"/>
	</linearGradient>
	<rect x="456.312" y="447.919" display="inline" fill="url(#SVGID_10_)" width="100" height="324.163"/>
</g>
<g id="Layer_6">
	<g id="Layer_7" display="none">
	</g>
	<linearGradient id="SVGID_11_" gradientUnits="userSpaceOnUse" x1="50.1135" y1="517.0812" x2="900.571" y2="517.0812">
		<stop  offset="0" style="stop-color:#DC2630"/>
		<stop  offset="1" style="stop-color:#7B4395"/>
	</linearGradient>
	<path fill-rule="evenodd" clip-rule="evenodd" fill="url(#SVGID_11_)" d="M814.901,483.263
		c51.234-41.404,46.076-98.344,46.076-98.344c-0.023-117.748-115.079-127.838-115.079-127.838H449.477v54.838h285.34
		c0,0,66.137,2.585,66.16,68c0.023,65.415-66.16,68-66.16,68h-285.34v94.159h6.835h289.187c0,0,85.296-0.252,85.398,85.002
		c0.103,85.254-85.398,85.006-85.398,85.006H449.477v64.996c0,0,251.523,0,305.003,0c53.48,0,144.52-58.415,146.417-155
		C902.795,525.496,814.901,483.263,814.901,483.263z"/>
	<linearGradient id="SVGID_12_" gradientUnits="userSpaceOnUse" x1="50.1135" y1="512" x2="900.571" y2="512">
		<stop  offset="0" style="stop-color:#DC2630"/>
		<stop  offset="1" style="stop-color:#7B4395"/>
	</linearGradient>
	<polyline fill-rule="evenodd" clip-rule="evenodd" fill="url(#SVGID_12_)" points="123.103,251.919 225.197,251.919 
		225.197,447.919 456.312,447.919 456.312,542.077 225.197,542.077 225.197,772.081 123.103,772.081 	"/>
	<linearGradient id="SVGID_13_" gradientUnits="userSpaceOnUse" x1="50.1135" y1="630.5787" x2="900.571" y2="630.5787">
		<stop  offset="0" style="stop-color:#DC2630"/>
		<stop  offset="1" style="stop-color:#7B4395"/>
	</linearGradient>
	<rect x="449.477" y="542.077" fill-rule="evenodd" clip-rule="evenodd" fill="url(#SVGID_13_)" width="74.613" height="177.003"/>
</g>
<g id="Layer_4" display="none">
	<circle display="inline" fill-rule="evenodd" clip-rule="evenodd" cx="732.977" cy="379.919" r="68"/>
	<rect x="446.978" y="311.919" display="inline" fill-rule="evenodd" clip-rule="evenodd" width="287.838" height="136"/>
</g>
<g id="Layer_5" display="none">
	<path display="inline" fill-rule="evenodd" clip-rule="evenodd" d="M660.101,627.079c0-46.945,38.234-85.002,85.398-85.002
		s85.398,38.057,85.398,85.002s-38.234,85.002-85.398,85.002S660.101,674.025,660.101,627.079z M745.499,542.077H456.312v170.008
		h289.187V542.077z"/>
</g>
</svg>
